<?xml version="1.0" encoding="UTF-8"?> <svg xmlns="http://www.w3.org/2000/svg" viewBox="0 0 64.73 59.14"><defs><style>.cls-1{fill:#c6c7c9;}</style></defs><g id="Layer_2" data-name="Layer 2"><g id="Layer_1-2" data-name="Layer 1"><g id="Layer_2-2" data-name="Layer 2"><g id="Layer_1-2-2" data-name="Layer 1-2"><path class="cls-1" d="M31.35,0a21.91,21.91,0,0,0-2.57.1C42.7,2.63,53.15,13.26,53.15,26c0,14.62-13.78,26.48-30.77,26.48A34.29,34.29,0,0,1,5.25,48a35,35,0,0,0,26.1,11.14c18.44,0,33.38-13.23,33.38-29.57S49.79,0,31.35,0"></path><path class="cls-1" d="M4.86,30.21A24.53,24.53,0,0,1,39.12,7.58a25.92,25.92,0,0,0-14.39-4.3C11.07,3.28,0,13.57,0,26.26A22.35,22.35,0,0,0,9.08,44.05,24.65,24.65,0,0,1,4.86,30.21"></path><path class="cls-1" d="M42.83,10.62A21.72,21.72,0,0,1,46.11,22c0,14-13.82,25.38-30.86,25.38H15.2a26.64,26.64,0,0,0,9.43,1.72c13.72,0,24.84-10.26,24.84-22.91a21.86,21.86,0,0,0-6.64-15.58"></path></g></g></g></g></svg> 