<?xml version="1.0" encoding="UTF-8"?>
<svg id="Layer_2" data-name="Layer 2" xmlns="http://www.w3.org/2000/svg" viewBox="0 0 95.2 315.8">
  <defs>
    <style>
      .cls-1 {
        fill: #231f20;
        stroke-width: 0px;
      }
    </style>
  </defs>
  <g id="Layer_1-2" data-name="Layer 1">
    <polygon class="cls-1" points="52.1 315.8 52.1 314.5 56.9 314.8 58.9 314.8 61.6 315.8 84.3 315.8 85 315.1 84.7 313.1 82.6 311.1 77.9 308.7 73.8 306 73.5 305 67 300.9 65.7 300.9 64.3 299.9 64 296.9 63.3 287.7 61.6 285 62 281.6 62.3 275.2 62.3 272.1 63.7 267.1 66 259.3 69.8 248.8 69.4 246.1 70.1 242.4 72.5 236.6 73.5 219.7 75.2 206.5 77.2 196.3 78.9 189.6 80.9 178.4 82.3 169.9 85.3 164.8 90.4 155.7 92.5 151.6 92.8 146.6 92.1 142.8 91.8 138.8 92.5 137.8 92.8 136.8 93.1 135.1 93.1 130.7 93.5 127.3 93.8 125.9 94.8 123.9 94.8 119.1 94.5 115.4 94.2 114.4 94.8 111.7 95.2 108.3 94.5 104.6 93.8 102.6 93.8 97.8 93.5 92.4 93.8 89.4 93.8 84.6 93.5 77.9 92.5 72.4 92.1 70.4 87.4 65 80.6 59.9 76.5 58.2 73.5 56.2 72.8 53.8 70.1 51.8 67.4 49.4 67 48.4 68.4 43 71.8 33.8 73.8 33.2 74.8 30.8 75.9 26.1 76.2 23.7 76.9 19.6 77.2 16.6 75.9 11.8 74.5 9.1 73.5 7.4 70.8 4.7 67.7 4.1 63.3 2.4 59.6 .3 56.2 0 52.5 2.7 47.4 5.4 45 8.1 44 10.5 43.7 12.2 42 15.6 42.3 18.9 43 23 43.3 24.7 43.7 27.4 44.7 30.1 45 31.5 46 34.5 46.4 38.6 47.1 41.3 47.4 42.3 46.4 43.3 45.7 43.3 45 44.7 43 47.1 41.3 48.1 41 48.7 33.8 50.4 27.4 52.5 22 54.5 17.9 56.5 16.6 57.2 13.5 59.6 11.1 64.6 10.1 68.7 9.8 71.1 9.1 75.5 7.8 79.9 4 88.7 .6 96.8 0 102.9 .3 109 1 114.1 2 119.8 2.3 122.5 2 126.3 3 129.3 5.7 132.4 7.1 134.4 8.4 138.1 8.4 140.1 8.1 141.8 10.1 145.9 12.5 149.3 16.2 156.4 17.2 161.5 18.6 163.5 16.9 173 14.9 182.8 13.5 201.1 11.1 218.7 9.1 233.6 9.1 248.1 7.4 258.3 7.8 261.7 6.7 264 5.4 270.5 4 284.7 4.4 294.2 7.8 305 8.1 306.7 7.1 310.4 7.1 312.8 7.1 314.8 7.4 315.8 26.7 315.8 27.4 315.1 27.4 314.1 27.1 312.4 26.1 308.7 25.4 307 24.7 306.3 25.7 305.7 26.4 298.9 27.7 289.7 28.4 282 29.8 276.9 31.1 270.8 31.8 262.3 34.2 248.8 35.5 242.4 40.3 224.4 42.3 206.1 43.3 198.4 44 195.6 44.3 190.6 44.7 186.8 45.4 185.8 46 187.5 45.7 191.3 46 199 46.4 208.8 45.4 213.3 45.4 220.7 46.4 228.8 45.7 232.5 45 245.1 44 249.1 44 251.5 44.3 256.2 44 259.3 44 269.1 44.3 279.6 43.3 284.3 42.7 297.5 42.3 303.3 41.6 315.8 52.1 315.8"/>
  </g>
</svg>